<svg xmlns="http://www.w3.org/2000/svg" width="385" height="384" viewBox="0 0 385 384"><defs><clipPath id="wx3za"><path fill="#fff" d="M199.43 2.641l182.88 182.88a9.128 9.128 0 0 1 0 12.91L199.43 381.308a9.128 9.128 0 0 1-12.908 0L3.642 198.43a9.128 9.128 0 0 1 0-12.909l182.88-182.88a9.129 9.129 0 0 1 12.909 0z"/></clipPath></defs><g><g><path fill="none" stroke="#f1b451" stroke-miterlimit="50" stroke-width="4" d="M199.43 2.641l182.88 182.88a9.128 9.128 0 0 1 0 12.91L199.43 381.308a9.128 9.128 0 0 1-12.908 0L3.642 198.43a9.128 9.128 0 0 1 0-12.909l182.88-182.88a9.129 9.129 0 0 1 12.909 0z" clip-path="url(&quot;#wx3za&quot;)"/></g></g></svg>